<svg version="1.0" xmlns="http://www.w3.org/2000/svg" viewBox="0 0 340 250" color-interpolation-filters="sRGB" style="margin:auto"><rect width="100%" height="100%" fill="url(#watermark)" class="watermarklayer"/><g fill="#7e7b7c" class="icon-text-wrapper icon-svg-group iconsvg"><g class="iconsvg-imagesvg" mask="url(#a)" transform="translate(46.885 93.944)"><path class="image-rect" fill="none" d="M0 0h60v62.112H0z"/><svg width="60" height="62.112" class="image-svg-svg primary" style="overflow:visible"><svg xmlns="http://www.w3.org/2000/svg" viewBox="0 -0.004 54.1 56.004"><g data-name="图层 2"><g data-name="Layer 1"><path d="M27.74 56c10.58 0 19.46-4.41 24.45-11.2l-8.88-7.38a17.37 17.37 0 0 1-14 6.69c-8.28 0-14-5-15.47-12.07H.29C2.07 45.59 12.81 56 27.74 56z" fill="#f4400d"/><path d="M53.77 24H.29A30.93 30.93 0 0 0 0 28a30.59 30.59 0 0 0 .29 4H54c0-.9.1-2 .1-3.09a40.69 40.69 0 0 0-.33-4.91z" fill="#2f2a76"/><path d="M.29 24h53.48a33.41 33.41 0 0 0-2-8H2.52a29 29 0 0 0-2.23 8z" fill="#f4400d"/><path d="M2.52 16h49.3A25.93 25.93 0 0 0 47 8H7.92a26.92 26.92 0 0 0-5.4 8z" fill="#2f2a76"/><path d="M47 8c-4.5-5-11-8-19.29-8A27.33 27.33 0 0 0 7.92 8z" fill="#f4400d"/></g></g></svg></svg><path transform="translate(-6 -6)" style="pointer-events:none" fill="url(#b)" d="M0 0h72v74.112H0z"/></g><path d="M0 2.07h18.78q-.04 1.58-.14 3.18-.1 1.61-.3 3.23h-1.03l-1.62-4.35H7.05v10.5h6.46l1.55-2.94h.99q.23 3.93 0 8.01h-.99l-1.55-3.01H7.05v11.05h9.11l1.95-4.75h.99q.27 1.66.39 3.36.12 1.71.04 3.45H0v-1.15q1.39-.63 3.25-.95V4.2q-.79-.15-1.63-.41Q.79 3.53 0 3.21V2.07Zm32.33 26.74v.99h-8.8v-.99q1.31-.63 2.62-.95V2.78l-3.01-.32V1.43Q24.17.96 25.71.6q1.55-.36 3.01-.6h1v27.86q1.3.32 2.61.95Zm11.93 0v.99h-8.8v-.99q.59-.32 1.23-.54.63-.21 1.39-.41V12.29l-2.62-.32v-1.03q1.15-.48 2.5-.83 1.34-.36 2.69-.6h.99v18.35q.79.2 1.43.41.63.22 1.19.54ZM37.32 3.25q0-1.07.7-1.7.69-.63 1.84-.63 1.15 0 1.82.63.67.63.67 1.7 0 1.07-.67 1.69-.67.61-1.82.61t-1.84-.61q-.7-.62-.7-1.69Zm9.04 8.72v-1.03q1.5-.95 3.17-1.35V6.23q.51-.44 1.2-.78.7-.33 1.37-.65h.99v5.19h5.94v1.98h-5.94v11.49q0 2.38.75 3.37.76.99 2.26.99.72 0 1.79-.1t1.82-.38l.28.6q-.32.35-.9.75-.57.4-1.3.75-.74.36-1.61.6-.87.24-1.78.24-2.38 0-3.63-1.35-1.24-1.35-1.24-4.36v-12.6h-3.17Zm31.22 14.42.55.64q-.31.67-.99 1.26-.67.6-1.54 1.03-.88.44-1.91.7-1.03.26-2.1.26-2.33 0-4.12-.74-1.78-.73-2.97-2.1-1.19-1.36-1.8-3.27-.61-1.9-.61-4.28 0-5.07 2.33-7.72 2.34-2.66 6.62-2.66 1.39 0 2.73.38 1.35.38 2.4 1.25 1.05.87 1.7 2.32.66 1.44.66 3.58 0 .68-.06 1.37-.06.69-.22 1.48H65.89q0 1.67.42 3.11.41 1.45 1.24 2.52.84 1.07 2.1 1.68 1.27.62 2.98.62 1.38 0 2.81-.4 1.42-.39 2.14-1.03Zm-6.7-15.13q-2.26 0-3.45 1.52-1.18 1.53-1.42 5.37h8.71q.04-.36.06-.69.02-.34.02-.66 0-2.53-.95-4.04-.95-1.5-2.97-1.5Zm23.46 9.98 1.62 5.83q.48.47 1.23.81.75.34 2.26.34 1.27 0 2.38-.34 1.11-.34 1.92-.99.81-.66 1.29-1.59.47-.93.47-2.12 0-1.58-.97-2.65-.97-1.07-2.42-1.9-1.44-.84-3.15-1.63-1.7-.79-3.15-1.88-1.44-1.09-2.41-2.61-.97-1.53-.97-3.83 0-1.66.59-2.97.59-1.31 1.68-2.22 1.09-.91 2.6-1.41 1.5-.49 3.37-.49 2.41 0 4.41.38 2.01.37 3.15.93 0 .67-.09 1.56-.1.89-.24 1.84-.14.96-.3 1.85-.16.89-.32 1.56h-1.03l-1.58-5.43q-.71-.31-1.8-.47-1.09-.16-2.32-.16-2.02 0-3.25 1.13t-1.23 3.15q0 1.62.97 2.73.97 1.11 2.44 1.98 1.46.88 3.15 1.69 1.68.81 3.15 1.88 1.46 1.07 2.43 2.54.98 1.46.98 3.64 0 1.78-.66 3.25-.65 1.47-1.88 2.5t-3.01 1.58q-1.78.56-4.04.56-2.5 0-4.48-.6-1.98-.59-2.81-1.27.04-.67.14-1.62.09-.95.23-1.96t.3-1.96q.16-.95.32-1.63h1.03Zm39.5 7.57v.99h-8.56v-.99q.95-.52 2.38-.95v-9.27q0-3.09-.87-4.86-.87-1.76-3.17-1.76-1.03 0-1.86.38-.84.37-1.51.97-.67.59-1.15 1.36-.47.78-.71 1.61v11.57q.63.16 1.21.36.57.19 1.13.59v.99h-8.52v-.99q1.23-.63 2.61-.95V2.78l-3.01-.32V1.43q1.15-.47 2.68-.83 1.52-.36 2.91-.6h.99v13.99h.04q.83-1.86 2.39-3.17 1.57-1.31 3.79-1.31 1.58 0 2.83.38t2.08 1.33q.83.95 1.27 2.55.44 1.61.44 4.06v10.03q.67.16 1.34.36.68.19 1.27.59Zm2.3-8.92q0-2.49.65-4.41.66-1.92 1.88-3.25 1.23-1.33 2.96-2.02 1.72-.7 3.82-.7 2.46 0 4.24.76 1.78.75 2.91 2.12 1.13 1.36 1.66 3.27.54 1.9.54 4.23 0 5-2.54 7.69-2.53 2.7-6.81 2.7-2.38 0-4.12-.74-1.74-.73-2.89-2.1-1.15-1.36-1.73-3.29-.57-1.92-.57-4.26Zm3.8 0q0 1.79.34 3.37.34 1.59 1.07 2.76.73 1.16 1.92 1.84 1.19.67 2.85.67 2.14 0 3.51-2.1 1.37-2.1 1.37-6.54 0-1.82-.34-3.38-.34-1.57-1.05-2.74-.71-1.17-1.82-1.84-1.11-.67-2.66-.67-2.34 0-3.76 2.1-1.43 2.1-1.43 6.53Zm26.51 16.84v.99h-8.8v-.99q1.35-.63 2.62-.95V12.29l-2.62-.32v-1.03q1.27-.55 2.6-.89 1.33-.34 2.59-.54h.99v4.44h.04q.8-2.02 2.22-3.23 1.43-1.21 3.73-1.21 3.52 0 5.46 2.34 1.95 2.34 1.95 7.61 0 2.49-.66 4.52-.65 2.02-1.86 3.4-1.21 1.39-2.93 2.14-1.73.76-3.83.76-1.46 0-2.29-.18-.84-.18-1.83-.62v6.3q.64.08 1.27.3.64.22 1.35.65Zm2.1-24.76q-1.94 0-3.09 1.23t-1.63 3.37v11.09q.72.44 1.61.65.89.22 2.32.22 1.3 0 2.35-.67 1.05-.68 1.79-1.9.73-1.23 1.13-2.88.39-1.64.39-3.62 0-1.63-.26-2.99-.25-1.37-.83-2.38-.57-1.01-1.5-1.56-.93-.56-2.28-.56Z" data-gra="path-name" class="tp-name iconsvg-namesvg" fill="url(#c)" transform="translate(115.885 106.14)"/></g><defs><linearGradient x1="0" y1="1" x2="0" y2="0" id="c"><stop offset="0%" stop-color="#7e7b7c"/><stop offset="50%" stop-color="#ededef"/><stop offset="100%" stop-color="#7e7b7c"/></linearGradient></defs><defs><linearGradient x1="0" y1="1" x2="0" y2="0" id="b"><stop offset="0%" stop-color="#7e7b7c"/><stop offset="50%" stop-color="#ededef"/><stop offset="100%" stop-color="#7e7b7c"/></linearGradient><filter id="d" filterUnits="userSpaceOnUse"><feColorMatrix values="0 0 0 0 0.99609375 0 0 0 0 0.99609375 0 0 0 0 0.99609375 0 0 0 1 0"/></filter></defs><mask id="a"><g class="iconsvg-imagesvg" filter="url(#d)"><path fill="#7e7b7c" fill-opacity="0" stroke-width="2" class="image-rect" d="M0 0h60v62.112H0z"/><svg width="60" height="62.112" class="image-svg-svg primary" style="overflow:visible"><svg xmlns="http://www.w3.org/2000/svg" viewBox="0 -0.004 54.1 56.004"><g data-name="图层 2"><g data-name="Layer 1"><path d="M27.74 56c10.58 0 19.46-4.41 24.45-11.2l-8.88-7.38a17.37 17.37 0 0 1-14 6.69c-8.28 0-14-5-15.47-12.07H.29C2.07 45.59 12.81 56 27.74 56z" fill="#f4400d"/><path d="M53.77 24H.29A30.93 30.93 0 0 0 0 28a30.59 30.59 0 0 0 .29 4H54c0-.9.1-2 .1-3.09a40.69 40.69 0 0 0-.33-4.91z" fill="#2f2a76"/><path d="M.29 24h53.48a33.41 33.41 0 0 0-2-8H2.52a29 29 0 0 0-2.23 8z" fill="#f4400d"/><path d="M2.52 16h49.3A25.93 25.93 0 0 0 47 8H7.92a26.92 26.92 0 0 0-5.4 8z" fill="#2f2a76"/><path d="M47 8c-4.5-5-11-8-19.29-8A27.33 27.33 0 0 0 7.92 8z" fill="#f4400d"/></g></g></svg></svg></g></mask></svg>